name rise42.5664peak47.7979fall81.9185.mot
datacolumns 19
datarows 36
range 22.98825400000000 23.04658000000000
endheader
time	ground_force1_vx	ground_force1_vy	ground_force1_vz	ground_force1_px	ground_force1_py	ground_force1_pz	ground_force2_vx	ground_force2_vy	ground_force2_vz	ground_force2_px	ground_force2_py	ground_force2_pz	ground_torque1_x	ground_torque1_y	ground_torque1_z	ground_torque2_x	ground_torque2_y	ground_torque2_z	
22.98825400000000	53.40141200000000	776.66909899999996	50.23583500000000	0.26266900000000	0.00000000000000	0.10383800000000	0.00000000000000	0.00000000000000	0.00000000000000	0.00000000000000	0.00000000000000	0.00000000000000	0.00000000000000	14.99482500000000	0.00000000000000	0.00000000000000	0.00000000000000	0.00000000000000	
22.98990800000000	52.51250500000000	777.19988799999999	50.22008900000000	0.26155900000000	0.00000000000000	0.10387100000000	0.00000000000000	0.00000000000000	0.00000000000000	0.00000000000000	0.00000000000000	0.00000000000000	0.00000000000000	14.98427200000000	0.00000000000000	0.00000000000000	0.00000000000000	0.00000000000000	
22.99158000000000	51.62712500000000	777.62524099999996	50.20290000000000	0.26046200000000	0.00000000000000	0.10390600000000	0.00000000000000	0.00000000000000	0.00000000000000	0.00000000000000	0.00000000000000	0.00000000000000	0.00000000000000	14.97473600000000	0.00000000000000	0.00000000000000	0.00000000000000	0.00000000000000	
22.99324400000000	50.74594000000000	777.94750099999999	50.18430100000000	0.25937500000000	0.00000000000000	0.10394100000000	0.00000000000000	0.00000000000000	0.00000000000000	0.00000000000000	0.00000000000000	0.00000000000000	0.00000000000000	14.96622700000000	0.00000000000000	0.00000000000000	0.00000000000000	0.00000000000000	
22.99492600000000	49.86954400000000	778.16905499999996	50.16427100000000	0.25829800000000	0.00000000000000	0.10397800000000	0.00000000000000	0.00000000000000	0.00000000000000	0.00000000000000	0.00000000000000	0.00000000000000	0.00000000000000	14.95873400000000	0.00000000000000	0.00000000000000	0.00000000000000	0.00000000000000	
22.99657900000000	48.99845600000000	778.29234099999996	50.14274400000000	0.25723000000000	0.00000000000000	0.10401500000000	0.00000000000000	0.00000000000000	0.00000000000000	0.00000000000000	0.00000000000000	0.00000000000000	0.00000000000000	14.95222000000000	0.00000000000000	0.00000000000000	0.00000000000000	0.00000000000000	
22.99825800000000	48.13312800000000	778.31984699999998	50.11960700000000	0.25616900000000	0.00000000000000	0.10405300000000	0.00000000000000	0.00000000000000	0.00000000000000	0.00000000000000	0.00000000000000	0.00000000000000	0.00000000000000	14.94662800000000	0.00000000000000	0.00000000000000	0.00000000000000	0.00000000000000	
22.99993000000000	47.27394300000000	778.25411499999996	50.09470900000000	0.25511300000000	0.00000000000000	0.10409300000000	0.00000000000000	0.00000000000000	0.00000000000000	0.00000000000000	0.00000000000000	0.00000000000000	0.00000000000000	14.94188200000000	0.00000000000000	0.00000000000000	0.00000000000000	0.00000000000000	
23.00158000000000	46.42122100000000	778.09774000000004	50.06785900000000	0.25406200000000	0.00000000000000	0.10413400000000	0.00000000000000	0.00000000000000	0.00000000000000	0.00000000000000	0.00000000000000	0.00000000000000	0.00000000000000	14.93788700000000	0.00000000000000	0.00000000000000	0.00000000000000	0.00000000000000	
23.00324600000000	45.57522300000000	777.85337400000003	50.03883800000000	0.25301300000000	0.00000000000000	0.10417500000000	0.00000000000000	0.00000000000000	0.00000000000000	0.00000000000000	0.00000000000000	0.00000000000000	0.00000000000000	14.93453500000000	0.00000000000000	0.00000000000000	0.00000000000000	0.00000000000000	
23.00491800000000	44.73615300000000	777.52372300000002	50.00739700000000	0.25196500000000	0.00000000000000	0.10421800000000	0.00000000000000	0.00000000000000	0.00000000000000	0.00000000000000	0.00000000000000	0.00000000000000	0.00000000000000	14.93170200000000	0.00000000000000	0.00000000000000	0.00000000000000	0.00000000000000	
23.00658200000000	43.90416500000000	777.11154899999997	49.97326200000000	0.25091700000000	0.00000000000000	0.10426200000000	0.00000000000000	0.00000000000000	0.00000000000000	0.00000000000000	0.00000000000000	0.00000000000000	0.00000000000000	14.92925500000000	0.00000000000000	0.00000000000000	0.00000000000000	0.00000000000000	
23.00825600000000	43.07936200000000	776.61967100000004	49.93614300000000	0.24986700000000	0.00000000000000	0.10430700000000	0.00000000000000	0.00000000000000	0.00000000000000	0.00000000000000	0.00000000000000	0.00000000000000	0.00000000000000	14.92705000000000	0.00000000000000	0.00000000000000	0.00000000000000	0.00000000000000	
23.00990900000000	42.26180600000000	776.05096200000003	49.89573500000000	0.24881300000000	0.00000000000000	0.10435400000000	0.00000000000000	0.00000000000000	0.00000000000000	0.00000000000000	0.00000000000000	0.00000000000000	0.00000000000000	14.92493400000000	0.00000000000000	0.00000000000000	0.00000000000000	0.00000000000000	
23.01158200000000	41.45151600000000	775.40834600000005	49.85172200000000	0.24775600000000	0.00000000000000	0.10440100000000	0.00000000000000	0.00000000000000	0.00000000000000	0.00000000000000	0.00000000000000	0.00000000000000	0.00000000000000	14.92275200000000	0.00000000000000	0.00000000000000	0.00000000000000	0.00000000000000	
23.01324800000000	40.64847800000000	774.69479899999999	49.80378200000000	0.24669200000000	0.00000000000000	0.10445000000000	0.00000000000000	0.00000000000000	0.00000000000000	0.00000000000000	0.00000000000000	0.00000000000000	0.00000000000000	14.92034300000000	0.00000000000000	0.00000000000000	0.00000000000000	0.00000000000000	
23.01490800000000	39.85264600000000	773.91334800000004	49.75159500000000	0.24562200000000	0.00000000000000	0.10449900000000	0.00000000000000	0.00000000000000	0.00000000000000	0.00000000000000	0.00000000000000	0.00000000000000	0.00000000000000	14.91754400000000	0.00000000000000	0.00000000000000	0.00000000000000	0.00000000000000	
23.01658100000000	39.06394500000000	773.06706299999996	49.69484100000000	0.24454300000000	0.00000000000000	0.10455000000000	0.00000000000000	0.00000000000000	0.00000000000000	0.00000000000000	0.00000000000000	0.00000000000000	0.00000000000000	14.91419500000000	0.00000000000000	0.00000000000000	0.00000000000000	0.00000000000000	
23.01824400000000	38.28227900000000	772.15905699999996	49.63320900000000	0.24345500000000	0.00000000000000	0.10460200000000	0.00000000000000	0.00000000000000	0.00000000000000	0.00000000000000	0.00000000000000	0.00000000000000	0.00000000000000	14.91013500000000	0.00000000000000	0.00000000000000	0.00000000000000	0.00000000000000	
23.01990700000000	37.50753200000000	771.19248100000004	49.56639900000000	0.24235700000000	0.00000000000000	0.10465400000000	0.00000000000000	0.00000000000000	0.00000000000000	0.00000000000000	0.00000000000000	0.00000000000000	0.00000000000000	14.90520900000000	0.00000000000000	0.00000000000000	0.00000000000000	0.00000000000000	
23.02157800000000	36.73957100000000	770.17052200000001	49.49412400000000	0.24124900000000	0.00000000000000	0.10470800000000	0.00000000000000	0.00000000000000	0.00000000000000	0.00000000000000	0.00000000000000	0.00000000000000	0.00000000000000	14.89926500000000	0.00000000000000	0.00000000000000	0.00000000000000	0.00000000000000	
23.02324900000000	35.97825400000000	769.09639400000003	49.41611800000000	0.24012800000000	0.00000000000000	0.10476200000000	0.00000000000000	0.00000000000000	0.00000000000000	0.00000000000000	0.00000000000000	0.00000000000000	0.00000000000000	14.89216100000000	0.00000000000000	0.00000000000000	0.00000000000000	0.00000000000000	
23.02491500000000	35.22343000000000	767.97333700000001	49.33213600000000	0.23899500000000	0.00000000000000	0.10481800000000	0.00000000000000	0.00000000000000	0.00000000000000	0.00000000000000	0.00000000000000	0.00000000000000	0.00000000000000	14.88376000000000	0.00000000000000	0.00000000000000	0.00000000000000	0.00000000000000	
23.02658200000000	34.47494400000000	766.80461100000002	49.24195800000000	0.23784900000000	0.00000000000000	0.10487400000000	0.00000000000000	0.00000000000000	0.00000000000000	0.00000000000000	0.00000000000000	0.00000000000000	0.00000000000000	14.87393700000000	0.00000000000000	0.00000000000000	0.00000000000000	0.00000000000000	
23.02824400000000	33.73263800000000	765.59348699999998	49.14539000000000	0.23669000000000	0.00000000000000	0.10493000000000	0.00000000000000	0.00000000000000	0.00000000000000	0.00000000000000	0.00000000000000	0.00000000000000	0.00000000000000	14.86257700000000	0.00000000000000	0.00000000000000	0.00000000000000	0.00000000000000	
23.02991400000000	32.99635800000000	764.34324500000002	49.04226900000000	0.23551700000000	0.00000000000000	0.10498700000000	0.00000000000000	0.00000000000000	0.00000000000000	0.00000000000000	0.00000000000000	0.00000000000000	0.00000000000000	14.84957400000000	0.00000000000000	0.00000000000000	0.00000000000000	0.00000000000000	
23.03158000000000	32.26595400000000	763.05716700000005	48.93246500000000	0.23433000000000	0.00000000000000	0.10504500000000	0.00000000000000	0.00000000000000	0.00000000000000	0.00000000000000	0.00000000000000	0.00000000000000	0.00000000000000	14.83483800000000	0.00000000000000	0.00000000000000	0.00000000000000	0.00000000000000	
23.03324200000000	31.54128400000000	761.73852999999997	48.81588200000000	0.23312900000000	0.00000000000000	0.10510300000000	0.00000000000000	0.00000000000000	0.00000000000000	0.00000000000000	0.00000000000000	0.00000000000000	0.00000000000000	14.81829000000000	0.00000000000000	0.00000000000000	0.00000000000000	0.00000000000000	
23.03490800000000	30.82221500000000	760.39059799999995	48.69245700000000	0.23191500000000	0.00000000000000	0.10516100000000	0.00000000000000	0.00000000000000	0.00000000000000	0.00000000000000	0.00000000000000	0.00000000000000	0.00000000000000	14.79986500000000	0.00000000000000	0.00000000000000	0.00000000000000	0.00000000000000	
23.03657800000000	30.10862600000000	759.01661799999999	48.56216800000000	0.23068700000000	0.00000000000000	0.10521900000000	0.00000000000000	0.00000000000000	0.00000000000000	0.00000000000000	0.00000000000000	0.00000000000000	0.00000000000000	14.77951100000000	0.00000000000000	0.00000000000000	0.00000000000000	0.00000000000000	
23.03825900000000	29.40041200000000	757.61981500000002	48.42502800000000	0.22944600000000	0.00000000000000	0.10527800000000	0.00000000000000	0.00000000000000	0.00000000000000	0.00000000000000	0.00000000000000	0.00000000000000	0.00000000000000	14.75719000000000	0.00000000000000	0.00000000000000	0.00000000000000	0.00000000000000	
23.03991300000000	28.69748200000000	756.20338000000004	48.28108800000000	0.22819200000000	0.00000000000000	0.10533600000000	0.00000000000000	0.00000000000000	0.00000000000000	0.00000000000000	0.00000000000000	0.00000000000000	0.00000000000000	14.73287900000000	0.00000000000000	0.00000000000000	0.00000000000000	0.00000000000000	
23.04157900000000	27.99976300000000	754.77046800000005	48.13043900000000	0.22692600000000	0.00000000000000	0.10539500000000	0.00000000000000	0.00000000000000	0.00000000000000	0.00000000000000	0.00000000000000	0.00000000000000	0.00000000000000	14.70656700000000	0.00000000000000	0.00000000000000	0.00000000000000	0.00000000000000	
23.04325000000000	27.30720000000000	753.32419000000004	47.97321000000000	0.22564800000000	0.00000000000000	0.10545300000000	0.00000000000000	0.00000000000000	0.00000000000000	0.00000000000000	0.00000000000000	0.00000000000000	0.00000000000000	14.67825700000000	0.00000000000000	0.00000000000000	0.00000000000000	0.00000000000000	
23.04491500000000	26.61975700000000	751.86760800000002	47.80956800000000	0.22435900000000	0.00000000000000	0.10551100000000	0.00000000000000	0.00000000000000	0.00000000000000	0.00000000000000	0.00000000000000	0.00000000000000	0.00000000000000	14.64796700000000	0.00000000000000	0.00000000000000	0.00000000000000	0.00000000000000	
23.04658000000000	25.93742000000000	750.40372600000001	47.63971700000000	0.22306100000000	0.00000000000000	0.10556800000000	0.00000000000000	0.00000000000000	0.00000000000000	0.00000000000000	0.00000000000000	0.00000000000000	0.00000000000000	14.61572300000000	0.00000000000000	0.00000000000000	0.00000000000000	0.00000000000000	
